<svg xmlns="http://www.w3.org/2000/svg" viewBox="0 0 599.66 224.98"><defs><style>.cls-1,.cls-2{fill:#fff;}.cls-1{stroke:#fff;stroke-miterlimit:10;}</style></defs><g id="Camada_2" data-name="Camada 2"><g id="Camada_1-2" data-name="Camada 1"><path class="cls-1" d="M4,.5H173.82a29.31,29.31,0,0,1,29.31,29.31v107a29.31,29.31,0,0,1-29.31,29.31H4a0,0,0,0,1,0,0V.5A0,0,0,0,1,4,.5Z"/><polygon class="cls-2" points="376.74 109.54 376.74 95.05 402.16 95.05 402.16 71.56 376.74 71.56 376.74 57.07 402.16 57.07 402.16 0.5 203.08 0.5 203.08 166.11 402.16 166.11 402.16 109.54 376.74 109.54"/><path class="cls-2" d="M569.18,106.64a48.54,48.54,0,0,0-27.8-9.14c-4.63,0-6.75,1.59-6.75,3.84v.27c0,2.51,2.52,4.1,12.31,6,13,2.4,23.65,5.56,30.62,11l6-31.78Z"/><path class="cls-2" d="M498.1,153.5l16.54-19.72a53.16,53.16,0,0,0,32.44,10.85c5.55,0,7.94-1.46,7.94-4v-.26c0-2.65-2.91-4.11-12.84-6.09-20.79-4.24-39-10.2-39-29.79v-.26c0-17.61,13.76-31.25,39.31-31.25,17.6,0,30.7,4.12,41.34,12.34L599.66.5H518.51l-18.4,36.8L481.71.5H400.57l31,165.61h90.76A61.12,61.12,0,0,1,498.1,153.5Z"/><path class="cls-1" d="M.5,192H13a15.35,15.35,0,0,1,11.22,4.57,15.31,15.31,0,0,1,0,22A15.31,15.31,0,0,1,13,223.12v0H.5Zm1,.94v29.32H13v0a14.5,14.5,0,0,0,10.57-4.31,13.88,13.88,0,0,0,4.36-10.31,14.05,14.05,0,0,0-4.36-10.39A14.58,14.58,0,0,0,13,192.9Z"/><path class="cls-1" d="M35.76,192H54.08v.94H36.72v14.17H50.23V208H36.72v14.17H54.08v.94H35.76Z"/><path class="cls-1" d="M65.77,223.12,54.2,192h1L66.43,222,77.58,192h1L67,223.12Z"/><path class="cls-1" d="M82.71,192H101v.94H83.67v14.17h13.5V208H83.67v14.17H101v.94H82.71Z"/><path class="cls-1" d="M107.36,192h1v30.22h17.36v.94H107.36Z"/><path class="cls-1" d="M153.11,195.85a16.3,16.3,0,0,1,0,23.38,17.15,17.15,0,0,1-23.88,0,16.3,16.3,0,0,1,0-23.38,17.17,17.17,0,0,1,23.88,0ZM141.19,192a15.49,15.49,0,0,0-11.26,4.57,15.31,15.31,0,0,0,0,22,16.12,16.12,0,0,0,22.49,0,15.34,15.34,0,0,0,0-22A15.48,15.48,0,0,0,141.19,192Z"/><path class="cls-1" d="M164.38,192H175a11.28,11.28,0,0,1,8.18,3.32,11.14,11.14,0,0,1,0,16,11.25,11.25,0,0,1-8.18,3.32h-9.64v8.5h-1Zm1,.94v20.78H175a10.32,10.32,0,0,0,7.51-3,10.26,10.26,0,0,0,0-14.7,10.36,10.36,0,0,0-7.51-3Z"/><path class="cls-1" d="M225.25,192v.94H215.6v30.22h-1V192.9H205V192Z"/><path class="cls-1" d="M230.61,208v15.11h-1V192h1v15.11h24.11V192h1v31.16h-1V208Z"/><path class="cls-1" d="M263.94,192h18.33v.94H264.91v14.17h13.5V208h-13.5v14.17h17.36v.94H263.94Z"/><path class="cls-1" d="M304.56,192h12.5a15.39,15.39,0,0,1,11.23,4.57,15.31,15.31,0,0,1,0,22,15.34,15.34,0,0,1-11.19,4.57v0H304.56Zm1,.94v29.32h11.53v0a14.48,14.48,0,0,0,10.57-4.31A13.88,13.88,0,0,0,332,207.56a14.05,14.05,0,0,0-4.36-10.39,14.56,14.56,0,0,0-10.57-4.27Z"/><path class="cls-1" d="M339.82,192h18.33v.94H340.79v14.17h13.5V208h-13.5v14.17h17.36v.94H339.82Z"/><path class="cls-1" d="M369.84,223.12,358.26,192h1L370.49,222,381.64,192h1l-11.57,31.16Z"/><path class="cls-1" d="M386.77,192H405.1v.94H387.74v14.17h13.5V208h-13.5v14.17H405.1v.94H386.77Z"/><path class="cls-1" d="M411.42,192h1v30.22h17.36v.94H411.42Z"/><path class="cls-1" d="M457.17,195.85a16.3,16.3,0,0,1,0,23.38,17.14,17.14,0,0,1-23.87,0,16.3,16.3,0,0,1,0-23.38,17.16,17.16,0,0,1,23.87,0ZM445.26,192A15.51,15.51,0,0,0,434,196.53a15.31,15.31,0,0,0,0,22,16.12,16.12,0,0,0,22.49,0,15.31,15.31,0,0,0,0-22A15.44,15.44,0,0,0,445.26,192Z"/><path class="cls-1" d="M468.44,192h10.61a11.3,11.3,0,0,1,8.18,3.32,11.16,11.16,0,0,1,0,16,11.26,11.26,0,0,1-8.18,3.32H469.4v8.5h-1Zm1,.94v20.78h9.65a10.32,10.32,0,0,0,7.5-3,10.24,10.24,0,0,0,0-14.7,10.36,10.36,0,0,0-7.5-3Z"/><path class="cls-1" d="M497,192h18.32v.94H497.91v14.17h13.5V208h-13.5v14.17h17.36v.94H497Z"/><path class="cls-1" d="M521.6,192h11.57a11.28,11.28,0,0,1,8.18,3.32,11.14,11.14,0,0,1,0,16,11.56,11.56,0,0,1-3.47,2.38l5.55,9.44h-1.15L537,214.06a12.26,12.26,0,0,1-3.78.56H522.56v8.5h-1Zm1,.94v20.78h10.61a10.34,10.34,0,0,0,7.51-3,10.26,10.26,0,0,0,0-14.7,10.38,10.38,0,0,0-7.51-3Z"/><path class="cls-1" d="M570.78,221.2a12,12,0,0,1-7.67,3.24c-.36,0-.72,0-1.08,0a14.48,14.48,0,0,1-9.18-3,15,15,0,0,1-3.32-4l.89-.42a13,13,0,0,0,3.08,3.7,13.31,13.31,0,0,0,8.45,2.8c.36,0,.72,0,1.08,0a11,11,0,0,0,7.06-3,6.18,6.18,0,0,0,1.85-3,6.3,6.3,0,0,0,.27-1.81,6.44,6.44,0,0,0-.92-3.25,6.53,6.53,0,0,0-4.13-3l-9.3-2.45a8.69,8.69,0,0,1-5.25-3.59,6.83,6.83,0,0,1-1.19-3.86,8.6,8.6,0,0,1,.31-2.23,8.23,8.23,0,0,1,4-5.17,9.94,9.94,0,0,1,4.2-1.28,14.48,14.48,0,0,1,1.47-.08,14.65,14.65,0,0,1,6.79,1.66,16.06,16.06,0,0,1,3.9,3.25l-.81.53a13.59,13.59,0,0,0-3.59-2.95,13.76,13.76,0,0,0-6.29-1.55,14.18,14.18,0,0,0-1.43.08,9,9,0,0,0-3.74,1.17,7.89,7.89,0,0,0-3.9,6.61,5.61,5.61,0,0,0,1.08,3.33,7.93,7.93,0,0,0,4.67,3.17l9.34,2.42a7.6,7.6,0,0,1,4.71,3.51,7.25,7.25,0,0,1,1,3.7,7.43,7.43,0,0,1-.31,2,7.08,7.08,0,0,1-2,3.52Z" fill="rgba(255, 255, 255, 0.747)"/></g></g></svg>
